PathFileType	4	(X/Y/Z)	C:\Users\Basilio\Documents\Thesis Gigler\squatting_fais\c3dfiles\058\SLS_back_pre5\markers_experimental.trc
DataRate	CameraRate	NumFrames	NumMarkers	Units	OrigDataRate	OrigDataStartFrame	OrigNumFrames
200.000000	200.000000	4	61	mm	200.000000	289	1156
Frame#	Time	FHD			LBHD			RBHD			C7			T10			CLAV			LSHO			LUUPA			LMUPA			LDUPA			LLEP			LMEP			LUL			LRFIN			RSHO			RUPA1			RMUPA			RDUPA			RLEP			RMEP			RUL			RUFIN			LASI			RASI			USACR			LSACR			RSACR			LTHI1			LTHI2			LTHI3			LTHI4			LLFC			LMFC			LTIB1			LTIB3			LTIB4			LLMAL			LMMAL			LHEE			LMT1			LMT5			RTHI			RTHI2			RTHI3			RTHI4			RLFC			RMFC			RTIB1			RTIB2			RTIB3			RTIB4			RLMAL			RMMAL			RHEE			RMT1			RMT2			RMT5			LTIB2			LMT2			LRAD			RRAD			
		X1	Y1	Z1	X2	Y2	Z2	X3	Y3	Z3	X4	Y4	Z4	X5	Y5	Z5	X6	Y6	Z6	X7	Y7	Z7	X8	Y8	Z8	X9	Y9	Z9	X10	Y10	Z10	X11	Y11	Z11	X12	Y12	Z12	X13	Y13	Z13	X14	Y14	Z14	X15	Y15	Z15	X16	Y16	Z16	X17	Y17	Z17	X18	Y18	Z18	X19	Y19	Z19	X20	Y20	Z20	X21	Y21	Z21	X22	Y22	Z22	X23	Y23	Z23	X24	Y24	Z24	X25	Y25	Z25	X26	Y26	Z26	X27	Y27	Z27	X28	Y28	Z28	X29	Y29	Z29	X30	Y30	Z30	X31	Y31	Z31	X32	Y32	Z32	X33	Y33	Z33	X34	Y34	Z34	X35	Y35	Z35	X36	Y36	Z36	X37	Y37	Z37	X38	Y38	Z38	X39	Y39	Z39	X40	Y40	Z40	X41	Y41	Z41	X42	Y42	Z42	X43	Y43	Z43	X44	Y44	Z44	X45	Y45	Z45	X46	Y46	Z46	X47	Y47	Z47	X48	Y48	Z48	X49	Y49	Z49	X50	Y50	Z50	X51	Y51	Z51	X52	Y52	Z52	X53	Y53	Z53	X54	Y54	Z54	X55	Y55	Z55	X56	Y56	Z56	X57	Y57	Z57	X58	Y58	Z58	X59	Y59	Z59	X60	Y60	Z60	X61	Y61	Z61	

290	1.445	-249.1448364257813	1801.942626953125	-637.3029785156251	-404.5852966308595	1759.399780273438	-719.5294189453126	-229.4779815673829	1807.207641601563	-780.110534667969	-419.7505493164064	1590.607299804688	-733.2164916992189	-420.6876525878907	1286.099609375	-720.4190063476564	-261.5558166503907	1550.42919921875	-708.8270874023439	-273.0924987792969	1600.878784179688	-862.720886230469	-109.0104598999024	1538.151245117188	-959.730407714844	-88.79727172851564	1576.845947265625	-934.1062011718752	-40.39155197143555	1541.482299804688	-945.7651367187502	32.24809265136719	1548.993408203125	-923.916931152344	36.18992614746094	1495.248901367188	-887.2451171875002	296.3814086914063	1595.546875	-883.890563964844	379.7417297363282	1611.180908203125	-796.5819091796877	-296.7608642578126	1605.125854492188	-559.9782104492189	-140.7011871337891	1527.350708007813	-445.9606933593751	-118.5598373413086	1567.228149414063	-468.1062316894532	-71.91416931152345	1539.314086914063	-445.3373107910157	-3.080271720886231	1535.385375976563	-451.5588378906251	8.346167564392092	1477.0087890625	-502.7735900878907	262.4958496093751	1594.086303710938	-451.2802734375001	351.9361572265626	1623.2109375	-517.3112182617189	-240.1469879150391	1084.990478515625	-842.172546386719	-250.3471679687501	1074.480102539063	-598.8529663085939	-434.3883056640626	1171.60986328125	-715.6520385742189	-441.3260803222657	1141.047607421875	-744.7067871093751	-439.9038391113282	1138.398071289063	-686.7416381835939	-248.6982574462891	823.1846923828127	-955.1752929687502	-208.5435943603516	747.0410766601564	-958.742614746094	-168.7466888427735	745.0364990234376	-928.9995117187502	-231.6766662597657	692.2811889648439	-969.3872680664065	-243.4284667968751	613.9141845703126	-971.7016601562502	-244.3653259277344	571.9743652343751	-841.8494262695315	-349.7715759277344	534.9663085937501	-954.0798339843752	-391.4849243164064	559.2736816406251	-988.7854003906252	-474.5198669433595	551.1923217773439	-970.8566894531252	-665.5286254882814	624.9459228515626	-981.796569824219	-657.7749633789064	574.7692871093751	-900.6209716796877	-640.3125000000001	671.4500732421876	-917.8254394531252	-795.747497558594	517.0360717773439	-904.5659790039065	-809.1465454101565	581.4084472656251	-990.384460449219	-370.6309509277344	868.1195068359377	-552.6179199218751	-337.6782531738282	810.731140136719	-553.0031127929689	-304.7923278808594	808.6646118164065	-552.9179687500001	-368.6226196289063	735.6903076171876	-577.3902587890626	-367.4981689453126	553.7908325195314	-608.9396362304689	-331.3982849121094	552.7272949218751	-742.1393432617189	-311.1312561035157	357.7990722656251	-712.0152587890626	-348.2630004882813	272.4153137207032	-656.5476684570314	-311.1087036132813	269.9165344238282	-686.8423461914064	-318.6412048339844	229.6376342773438	-726.7629394531251	-375.7664184570313	116.1925964355469	-698.3674926757814	-343.7458496093751	144.9854431152344	-782.5678710937502	-439.0941162109376	101.4846115112305	-763.8587036132814	-228.7166442871094	61.51725006103517	-774.9104003906252	-222.8627319335938	59.90990066528322	-722.9605102539064	-272.9555969238282	27.10675048828126	-672.1110839843751	-385.3375854492189	603.1055297851564	-994.9276123046877	-821.348571777344	518.1715698242189	-940.395446777344	288.2229309082032	1574.248779296875	-805.5798950195315	nan	nan	nan	
291	1.45	-249.0898590087891	1802.008056640625	-637.2252197265626	-404.4814758300782	1759.41552734375	-719.4314575195314	-229.4698791503907	1807.255737304688	-780.1076660156252	-419.6196899414064	1590.679565429688	-733.2116699218751	-420.6831970214845	1286.109985351563	-720.5046997070314	-261.5055847167969	1550.484375	-708.7988281250001	-273.0222473144532	1600.888061523438	-862.6632080078127	-108.8379211425782	1538.2119140625	-959.7400512695315	-88.7129592895508	1576.925537109375	-934.0971679687502	-40.36695098876954	1541.537109375	-945.7308349609377	32.20581817626954	1549.072509765625	-923.8628540039065	36.28956604003907	1495.318115234375	-887.2649536132815	296.4034118652344	1595.644775390625	-883.8193969726565	379.7929687500001	1611.1611328125	-796.5266723632815	-296.7296142578126	1605.103393554688	-559.9013061523439	-140.6274108886719	1527.331420898438	-445.9467163085939	-118.561882019043	1567.167236328125	-468.1128234863282	-71.88606262207033	1539.388061523438	-445.3228759765626	-3.018871307373048	1535.360595703125	-451.5976867675782	8.38773822784424	1476.955932617188	-502.8579406738282	262.5256042480469	1594.075561523438	-451.2890930175782	351.9916076660157	1623.285766601563	-517.2148437500001	-240.2579803466797	1084.937744140625	-842.2596435546877	-250.3575592041016	1074.506225585938	-598.8956298828126	-434.460906982422	1171.610107421875	-715.7188110351564	-441.3552246093751	1141.083740234375	-744.8233032226564	-439.855194091797	1138.521728515625	-686.8713989257814	-248.6142578125001	823.2729492187502	-955.312194824219	-208.6109313964844	747.0932006835939	-958.871765136719	-168.6302185058594	744.9257202148439	-929.1767578125002	-231.6424102783204	692.3848876953126	-969.4668579101565	-243.3742675781251	613.9458618164064	-971.8555297851565	-243.8875579833985	571.9422607421876	-841.9680786132815	-349.6882324218751	534.9822387695314	-954.0645751953127	-391.4052124023439	559.2010498046876	-988.8835449218752	-474.3588256835939	550.9404296875001	-970.8724365234377	-665.3291625976564	624.7678833007814	-981.8963012695315	-657.7883911132814	574.4807739257814	-900.6115722656252	-640.0242309570314	671.7507324218751	-917.6382446289065	-795.7366333007815	516.9699096679689	-904.5239868164065	-808.654724121094	580.7606811523439	-990.632019042969	-370.8128051757813	868.0093994140627	-552.6822509765626	-337.7234191894532	810.7294921875002	-553.0481567382814	-304.8210144042969	808.6634521484377	-552.9176025390626	-368.6375732421876	735.7188110351564	-577.4538574218751	-367.4167480468751	553.7835693359376	-609.0283813476564	-331.3208007812501	552.7188110351564	-742.1954345703126	-311.0968627929688	357.7911682128907	-712.0890502929689	-348.1625671386719	272.4349365234376	-656.5855102539064	-310.9205322265626	269.8569641113282	-686.9204101562501	-318.4053039550782	229.6454467773438	-726.8527832031251	-375.7219238281251	116.2376937866211	-698.3934326171876	-343.6641540527344	145.0156555175782	-782.666931152344	-439.1057739257814	101.4488983154297	-763.8579711914064	-228.7492980957032	61.50049591064455	-774.916931152344	-222.7804718017579	59.96864318847658	-722.9759521484376	-272.9924621582032	27.21363639831544	-672.0979003906251	-385.1729736328126	603.0121459960939	-995.0242309570315	-821.5989990234377	517.7843017578126	-940.4478149414065	288.2697143554688	1574.209106445313	-805.527038574219	nan	nan	nan	
292	1.455	-248.9123992919922	1802.08203125	-637.3565673828126	-404.501678466797	1759.236572265625	-719.3766479492189	-229.5135498046876	1807.36669921875	-780.1214599609377	-419.5205993652345	1590.665161132813	-733.2202758789064	-420.6230773925782	1286.156616210938	-720.5637207031251	-261.6038513183594	1550.43505859375	-708.7626953125001	-272.8605041503907	1600.933715820313	-862.633728027344	-108.7510757446289	1538.304931640625	-959.711608886719	-88.58576965332033	1577.00341796875	-934.0625610351565	-40.24176788330079	1541.622924804688	-945.710632324219	32.36198806762696	1549.138549804688	-923.862487792969	36.31072235107423	1495.298950195313	-887.1616210937502	296.4930419921876	1595.765502929688	-883.7919921875002	379.8261108398438	1611.126342773438	-796.5159301757815	-296.6370239257813	1605.047607421875	-559.9442749023439	-140.529296875	1527.233520507813	-445.9950561523439	-118.407829284668	1567.165649414063	-468.2025451660157	-71.83255767822267	1539.4365234375	-445.306365966797	-3.012504100799561	1535.28369140625	-451.6062316894532	8.419033050537111	1476.928466796875	-502.9272766113282	262.7692565917969	1594.383422851563	-451.1175842285157	352.2076416015626	1623.3251953125	-517.2547607421876	-240.2537536621094	1084.93701171875	-842.3677978515627	-250.3973846435547	1074.497192382813	-599.0275268554689	-434.5200500488282	1171.659423828125	-715.8011474609376	-441.3541870117189	1141.124877929688	-744.9210205078126	-439.8858337402345	1138.6005859375	-686.9953002929689	-248.0340118408204	823.618591308594	-955.8472290039065	-208.561996459961	747.1632080078126	-959.0679321289065	-168.3082427978516	745.2965698242189	-929.5076904296877	-231.6166992187501	692.4443969726564	-969.574401855469	-243.2712554931641	613.9577636718751	-972.0388793945315	-243.8228912353516	571.9889526367189	-842.0652465820315	-349.5904846191407	534.9526977539064	-954.0637207031252	-391.341766357422	559.1911010742189	-988.9277343750002	-474.2987060546876	550.7083129882814	-970.8485107421877	-665.2147827148439	624.5485839843751	-981.9854736328127	-657.4545898437501	573.9497070312501	-900.7161254882815	-640.0548706054689	671.4743652343751	-917.4698486328127	-795.776306152344	516.6618652343751	-904.4520263671877	-808.611511230469	580.4889526367189	-990.648376464844	-370.8100891113282	867.9817504882815	-552.8228759765626	-337.8808288574219	810.7540283203127	-553.0331420898439	-304.9586486816407	808.554626464844	-552.8447875976564	-368.6426086425782	735.7043457031251	-577.5140991210939	-367.3164062500001	553.7869262695314	-609.1422119140626	-331.2298583984376	552.6779785156251	-742.2937011718751	-311.0551452636719	357.7804565429688	-712.1275634765626	-347.9136352539063	272.4337768554688	-656.7099609375001	-310.8782043457032	269.8612976074219	-687.0558471679689	-318.3832397460938	229.5340576171876	-727.0070190429689	-375.6201171875001	116.2440872192383	-698.4945068359376	-343.7166748046876	144.9966735839844	-782.7858886718752	-439.096893310547	101.4789199829102	-763.8968505859376	-228.849349975586	61.41315078735353	-774.9780883789065	-222.8138732910157	59.96978759765626	-723.0143432617189	-272.9795227050782	27.22363853454591	-672.1421508789064	-385.0544738769532	602.8758544921876	-995.1711425781252	-821.5584106445315	517.5823364257814	-940.5293579101565	288.3388671875001	1574.157958984375	-805.532165527344	nan	nan	nan	
293	1.46	-248.7352752685547	1802.10302734375	-637.2318725585939	-404.4386291503907	1759.2314453125	-719.2929077148439	-229.5120239257813	1807.414916992188	-780.1223144531252	-419.4376525878907	1590.729736328125	-733.1543579101564	-420.658660888672	1286.183227539063	-720.5760498046876	-261.4373168945313	1550.477172851563	-708.7635498046876	-272.7294311523438	1600.993774414063	-862.5994262695315	-108.6692276000977	1538.394165039063	-959.7454223632815	-88.44114685058595	1577.166137695313	-934.0887451171877	-40.09882736206055	1541.735717773438	-945.7205810546877	32.44909667968751	1549.207763671875	-923.8260498046877	36.32963943481446	1495.310668945313	-887.057800292969	296.6380920410157	1595.864624023438	-883.7744140625002	379.9064941406251	1611.078002929688	-796.4338378906252	-296.6340942382813	1605.032958984375	-559.9827880859376	-140.2162322998047	1527.22607421875	-446.0761718750001	-118.2767028808594	1567.146728515625	-468.242645263672	-71.78219604492189	1539.375366210938	-445.3441467285157	-2.865650415420533	1535.2392578125	-451.6503295898439	8.40506172180176	1476.91064453125	-502.9371948242189	262.6026000976563	1594.046020507813	-451.2836303710939	352.2719726562501	1623.34521484375	-517.1712036132814	-240.4104919433594	1084.903198242188	-842.455017089844	-250.4518737792969	1074.50048828125	-599.1309814453126	-434.5157165527345	1171.64208984375	-715.9101562500001	-441.3709106445314	1141.11962890625	-745.0119018554689	-439.8906860351564	1138.6357421875	-687.1195068359376	-248.5921325683594	823.3189086914065	-955.6262817382815	-208.5301208496094	747.2280883789064	-959.1940917968752	-168.2130737304688	745.5568237304689	-929.655456542969	-231.4743652343751	692.5480957031251	-969.6262817382815	-243.1579589843751	613.9783935546876	-972.111267089844	-243.7854766845704	572.0279541015626	-842.1770629882815	-349.5373840332032	534.9510498046876	-954.015808105469	-391.3101501464845	559.1129150390626	-988.9656372070315	-474.0709228515626	550.4282836914064	-970.883972167969	-665.1164550781251	624.3824462890626	-981.9712524414065	-657.3338012695314	573.9418334960939	-900.9271240234377	-639.9322509765626	671.4091186523439	-917.5548095703127	-795.5692138671877	516.0393066406251	-904.4842529296877	-808.755065917969	580.4642944335939	-990.7402954101565	-370.8521728515626	867.9031372070315	-552.9127197265626	-337.8248291015626	810.6560668945315	-553.1757202148439	-305.0333557128907	808.4484863281252	-552.9218750000001	-368.6105957031251	735.6713867187501	-577.6001586914064	-367.2405395507813	553.7293090820314	-609.2533569335939	-331.0040893554688	552.7691650390626	-742.3782348632814	-311.0053710937501	357.7560119628907	-712.2576904296876	-347.7117309570313	272.4127197265626	-656.8114624023439	-310.8398132324219	269.7461853027344	-687.1741943359376	-318.1724548339844	229.7383270263672	-727.1708374023439	-375.5851440429688	116.2458190917969	-698.5927734375001	-343.7121887207032	145.0022277832032	-782.9172973632815	-439.0286865234376	101.4850463867188	-763.9702758789064	-228.7853546142579	61.24946975708009	-774.988464355469	-222.8064422607422	59.94291305541994	-723.0393066406251	-273.0249633789063	27.22835350036622	-672.1469116210939	-384.9980468750001	602.8021850585939	-995.240905761719	-821.235290527344	517.2025146484376	-940.652526855469	288.3757629394532	1573.929931640625	-805.527770996094	nan	nan	nan	
